<svg xmlns="http://www.w3.org/2000/svg" width="440" height="196" viewBox="0 0 440 196"><defs><linearGradient id="frame" x1="0" x2="0" y1="0" y2="1"><stop offset="0" stop-color="#33267a"/><stop offset="1" stop-color="#1d1547"/></linearGradient><linearGradient id="lip" x1="0" x2="0" y1="0" y2="1"><stop offset="0" stop-color="#140f33"/><stop offset="1" stop-color="#0e0a24"/></linearGradient><linearGradient id="paper" x1="0" x2="0" y1="0" y2="1"><stop offset="0" stop-color="#ffffff"/><stop offset="1" stop-color="#f6f2fb"/></linearGradient><linearGradient id="wing" x1="0" x2="1" y1="0" y2="0"><stop offset="0" stop-color="#5ad1e8"/><stop offset="0.32" stop-color="#8b6cf0"/><stop offset="0.68" stop-color="#f07ab8"/><stop offset="1" stop-color="#f5c46b"/></linearGradient><filter id="shade" x="-30%" y="-30%" width="160%" height="170%"><feDropShadow dx="0" dy="3" stdDeviation="4" flood-color="#0e0a24" flood-opacity="0.32"/></filter></defs><path d="M164 99L220 40L276 99Z" fill="#241a5c" stroke="#241a5c" stroke-width="6.6" stroke-linejoin="round"/><rect x="187" y="66" width="66" height="67" rx="5" fill="#ffffff" filter="url(#shade)"/><rect x="222.6" y="74" width="19.8" height="4" rx="2" fill="#d8d3ee"/><rect x="222.6" y="82" width="13.2" height="4" rx="2" fill="#d8d3ee"/><circle cx="206.8" cy="80" r="10.56" fill="#1c7f4f"/><path d="M202 80.2L205.7 84L211.9 76.3" fill="none" stroke="#ffffff" stroke-width="2.75" stroke-linecap="round" stroke-linejoin="round"/><g transform="translate(169.84 109.16) rotate(250)"><path d="M0 0C25.08 -15.84 80.26 -12.67 100.32 0C75.24 7.13 30.1 7.92 0 0Z" fill="url(#wing)" filter="url(#shade)"/><path d="M6.02 0Q50.16 -3.48 90.29 0" fill="none" stroke="#ffffff" stroke-opacity="0.45" stroke-width="1.58" stroke-linecap="round"/></g><g transform="translate(169.84 109.16) rotate(241)"><path d="M0 0C22.77 -17.16 72.86 -13.73 91.08 0C68.31 7.72 27.32 8.58 0 0Z" fill="url(#wing)" filter="url(#shade)"/><path d="M5.46 0Q45.54 -3.78 81.97 0" fill="none" stroke="#ffffff" stroke-opacity="0.45" stroke-width="1.58" stroke-linecap="round"/></g><g transform="translate(169.84 109.16) rotate(232)"><path d="M0 0C19.8 -17.82 63.36 -14.26 79.2 0C59.4 8.02 23.76 8.91 0 0Z" fill="url(#wing)" filter="url(#shade)"/><path d="M4.75 0Q39.6 -3.92 71.28 0" fill="none" stroke="#ffffff" stroke-opacity="0.45" stroke-width="1.58" stroke-linecap="round"/></g><g transform="translate(169.84 109.16) rotate(223)"><path d="M0 0C16.5 -17.16 52.8 -13.73 66 0C49.5 7.72 19.8 8.58 0 0Z" fill="url(#wing)" filter="url(#shade)"/><path d="M3.96 0Q33 -3.78 59.4 0" fill="none" stroke="#ffffff" stroke-opacity="0.45" stroke-width="1.58" stroke-linecap="round"/></g><g transform="translate(169.84 109.16) rotate(214)"><path d="M0 0C13.2 -15.84 42.24 -12.67 52.8 0C39.6 7.13 15.84 7.92 0 0Z" fill="url(#wing)" filter="url(#shade)"/><path d="M3.17 0Q26.4 -3.48 47.52 0" fill="none" stroke="#ffffff" stroke-opacity="0.45" stroke-width="1.58" stroke-linecap="round"/></g><path d="M168.52 100.58H271.48A14.52 14.52 0 0 1 286 115.1V181.39A14.52 14.52 0 0 1 271.48 195.91H168.52A14.52 14.52 0 0 1 154 181.39V115.1A14.52 14.52 0 0 1 168.52 100.58Z" fill="url(#lip)"/><path d="M168.52 92H271.48A14.52 14.52 0 0 1 286 106.52V172.81A14.52 14.52 0 0 1 271.48 187.33H168.52A14.52 14.52 0 0 1 154 172.81V106.52A14.52 14.52 0 0 1 168.52 92Z" fill="url(#frame)"/><path d="M168.52 92.8H271.48" stroke="#fbf7f0" stroke-opacity="0.18" stroke-width="1.2" stroke-linecap="round"/><path d="M163.77 102.56H276.23V169.25A6.86 6.86 0 0 1 269.37 176.11H170.63A6.86 6.86 0 0 1 163.77 169.25Z" fill="url(#paper)"/><path d="M165.77 174.11L220 145.39L274.23 174.11" fill="none" stroke="#c9c1e6" stroke-width="1.85" stroke-linejoin="round"/><path d="M430 150Q420 50 264 62" fill="none" stroke="#fbf7f0" stroke-width="2.2" stroke-linecap="round" stroke-dasharray="2 6" opacity="0.45"/></svg>
